<svg xmlns="http://www.w3.org/2000/svg" viewBox="0 0 124.42 222.05"><defs><style>.cls-1{opacity:0.62;}.cls-2{fill:#f5af03;}</style></defs><g id="Layer_2" data-name="Layer 2"><g id="Layer_1-2" data-name="Layer 1"><g class="cls-1"><path class="cls-2" d="M35.08,155.83c.85-23.07,8.67-45.25,20.33-66.11C70.81,62.14,80.2,34.3,62.65,4c-.6-1-.23-2.66-.31-4,1.61.61,3.45.9,4.81,1.87,24.5,17.41,28.9,41.88,24.4,69.54C87.88,93.94,76.62,113.6,67.66,134c-11.74,26.75-11,53-.76,79.72,1,2.65,3.86,5.63,1.12,8.24-.54.51-5-2.51-7.24-4.46C42.68,201.43,35.54,180.6,35.08,155.83Z"/><path class="cls-2" d="M.13,133.92C-.64,113.57,8.07,97,17.52,80.73,27.61,63.37,33,45.73,23,26.39c-.57-1.12-.28-2.67-.4-4,1.42.51,3.05.73,4.23,1.57C43.5,35.74,48.1,59.69,37.92,85.31c-5.3,13.34-12.36,26-17.73,39.3C14,140,16.5,155.73,20.66,171.26a38,38,0,0,1,.63,5.78c-1.87-1-4.1-1.68-5.55-3.12C4.44,162.74-.92,149.2.13,133.92Z"/><path class="cls-2" d="M81.35,167.35c-.67-19.16,8.48-36.22,18.18-53,9.6-16.64,14.37-33.61,5.13-52.08-.63-1.24-.2-3-.26-4.53,1.61.7,3.47,1.1,4.81,2.16,17.49,13.9,20,41.21,6.93,68.05-7.35,15.07-16.37,29.51-18.22,46.82-1.2,11.15,1.69,21.58,4.26,32.14a29.78,29.78,0,0,1,.29,5.69c-1.71-1-3.73-1.62-5.08-2.95C85.92,198.33,80.61,184.53,81.35,167.35Z"/></g></g></g></svg>