<svg xmlns="http://www.w3.org/2000/svg" viewBox="0 0 120.84 175.16"><defs><style>.cls-1{opacity:0.62;}.cls-2{fill:#f5af03;}</style></defs><g id="Layer_2" data-name="Layer 2"><g id="Layer_1-2" data-name="Layer 1"><g class="cls-1"><path class="cls-2" d="M0,106.66C.1,92.92,12.29,77.29,24.08,61.38c7.32-9.89,14.29-20.05,21.07-30.32,5.18-7.86,4.07-15.95-.21-24-1-1.85-2.31-5-1.51-6,1.82-2.34,4.54-.2,6.69.65C76.84,12.34,86.72,37.24,76.3,66.93c-4.69,13.34-12.75,24.78-19.77,36.84-15.64,26.85-14.31,42.91,5.23,66.86a24.64,24.64,0,0,1,2,3.59c-.87.32-1.79,1-2.61.93C34.2,171.77-.07,147.49,0,106.66Z"/><path class="cls-2" d="M60.13,127.94c-.64-13.13,7-23.9,14.81-34.6C81,85.06,87.13,76.8,92.84,68.27c4-6.06,4.52-12.61.84-19.28-.79-1.43-.61-3.39-.88-5.1,1.92.26,4,.1,5.73.84,19.14,8.35,26.19,24,20.28,45.09-3,10.61-8.54,20-14.52,29.15C91.66,138.3,92,151.73,105.72,170.29a21.71,21.71,0,0,1,1.79,3.69c-1.06.32-2.14,1-3.19.91C82.54,173.71,60.21,150.49,60.13,127.94Z"/></g></g></g></svg>