<svg xmlns="http://www.w3.org/2000/svg" viewBox="0 0 142.49 190.57"><defs><style>.cls-1{opacity:0.62;}.cls-2{fill:#f5af03;}</style></defs><g id="Layer_2" data-name="Layer 2"><g id="Layer_1-2" data-name="Layer 1"><g class="cls-1"><path class="cls-2" d="M110.86,45.55C110.35,66.94,98.67,83.4,87.06,100c-5.54,7.89-10.91,16-15.68,24.33-11.63,20.36-7.16,40.4,2,60.21.81,1.75,2.08,4.91,1.48,5.41-2.18,1.82-4.09-.63-5.85-1.74-38-23.89-42.22-65.53-10.81-104,6.35-7.79,12.22-16,18.21-24.07C89.51,42.32,90.14,24.22,77.71,5.76c-1-1.44-2.38-4-1.82-4.8,1.63-2.17,3.81-.12,5.4.75C98.72,11.16,111.39,23.9,110.86,45.55Z"/><path class="cls-2" d="M142.47,86.25c-.66,12.27-8,23.89-17.06,34.44-15.17,17.73-25,36.38-14,60.09.52,1.13.08,2.71.09,4.09-1.65-.57-3.51-.81-4.9-1.75C83.69,167.58,81,138.89,100.15,115.2c5.93-7.34,12-14.59,17.85-22,8.77-11,9.35-22.78,2.82-35.12-.78-1.47-.88-3.31-1.3-5,1.69.43,3.62.48,5,1.36C135.51,61.24,142.83,70.3,142.47,86.25Z"/><path class="cls-2" d="M.11,116.51c-.21-18.3,8.13-30.95,18-42.74C30.9,58.49,42.24,43.17,28.5,22.57c-.45-.67-.16-1.83-.21-2.76a19.44,19.44,0,0,1,4,.86C51.1,29,58,50.47,47.38,70.29,42.19,80,35.74,89.17,29.22,98.12,18,113.55,16.06,129.57,24.45,146.81c.74,1.53,1.62,4.24.93,5-1.88,2-3.74-.27-5.26-1.36C7.86,141.62-1.08,130.9.11,116.51Z"/></g></g></g></svg>