<?xml version="1.0" encoding="utf-8" standalone="no"?>
<!DOCTYPE svg PUBLIC "-//W3C//DTD SVG 1.1//EN"
  "http://www.w3.org/Graphics/SVG/1.1/DTD/svg11.dtd">
<!-- Created with matplotlib (https://matplotlib.org/) -->
<svg height="576pt" version="1.1" viewBox="0 0 720 576" width="720pt" xmlns="http://www.w3.org/2000/svg" xmlns:xlink="http://www.w3.org/1999/xlink">
 <defs>
  <style type="text/css">
*{stroke-linecap:butt;stroke-linejoin:round;}
  </style>
 </defs>
 <g id="figure_1">
  <g id="patch_1">
   <path d="M 0 576 
L 720 576 
L 720 0 
L 0 0 
z
" style="fill:#ffffff;"/>
  </g>
  <g id="axes_1">
   <g id="patch_2">
    <path d="M 90 504 
L 648 504 
L 648 69.12 
L 90 69.12 
z
" style="fill:#ffffff;"/>
   </g>
   <g id="matplotlib.axis_1">
    <g id="xtick_1">
     <g id="text_1">
      <!-- −1.2 -->
      <defs>
       <path d="M 4.15625 28.90625 
L 4.15625 41.75 
L 54.203125 41.75 
L 54.203125 28.90625 
z
" id="Arial-BoldMT-8722"/>
       <path d="M 39.359375 0 
L 25.640625 0 
L 25.640625 51.703125 
Q 18.109375 44.671875 7.90625 41.3125 
L 7.90625 53.765625 
Q 13.28125 55.515625 19.578125 60.421875 
Q 25.875 65.328125 28.21875 71.875 
L 39.359375 71.875 
z
" id="Arial-BoldMT-49"/>
       <path d="M 7.171875 0 
L 7.171875 13.71875 
L 20.90625 13.71875 
L 20.90625 0 
z
" id="Arial-BoldMT-46"/>
       <path d="M 50.59375 12.75 
L 50.59375 0 
L 2.484375 0 
Q 3.265625 7.234375 7.171875 13.703125 
Q 11.078125 20.171875 22.609375 30.859375 
Q 31.890625 39.5 33.984375 42.578125 
Q 36.8125 46.828125 36.8125 50.984375 
Q 36.8125 55.5625 34.34375 58.03125 
Q 31.890625 60.5 27.546875 60.5 
Q 23.25 60.5 20.703125 57.90625 
Q 18.171875 55.328125 17.78125 49.3125 
L 4.109375 50.6875 
Q 5.328125 62.015625 11.765625 66.9375 
Q 18.21875 71.875 27.875 71.875 
Q 38.484375 71.875 44.53125 66.15625 
Q 50.59375 60.453125 50.59375 51.953125 
Q 50.59375 47.125 48.859375 42.75 
Q 47.125 38.375 43.359375 33.59375 
Q 40.875 30.421875 34.375 24.453125 
Q 27.875 18.5 26.140625 16.546875 
Q 24.421875 14.59375 23.34375 12.75 
z
" id="Arial-BoldMT-50"/>
      </defs>
      <g style="fill:#262626;" transform="translate(65.028109 531.609266)scale(0.253 -0.253)">
       <use xlink:href="#Arial-BoldMT-8722"/>
       <use x="58.398438" xlink:href="#Arial-BoldMT-49"/>
       <use x="114.013672" xlink:href="#Arial-BoldMT-46"/>
       <use x="141.796875" xlink:href="#Arial-BoldMT-50"/>
      </g>
     </g>
    </g>
    <g id="xtick_2">
     <g id="text_2">
      <!-- −0.9 -->
      <defs>
       <path d="M 27.4375 71.875 
Q 37.84375 71.875 43.703125 64.453125 
Q 50.6875 55.671875 50.6875 35.296875 
Q 50.6875 14.984375 43.65625 6.109375 
Q 37.84375 -1.21875 27.4375 -1.21875 
Q 17 -1.21875 10.59375 6.8125 
Q 4.203125 14.84375 4.203125 35.453125 
Q 4.203125 55.671875 11.234375 64.546875 
Q 17.046875 71.875 27.4375 71.875 
z
M 27.4375 60.5 
Q 24.953125 60.5 23 58.90625 
Q 21.046875 57.328125 19.96875 53.21875 
Q 18.5625 47.90625 18.5625 35.296875 
Q 18.5625 22.703125 19.828125 17.984375 
Q 21.09375 13.28125 23.015625 11.71875 
Q 24.953125 10.15625 27.4375 10.15625 
Q 29.9375 10.15625 31.890625 11.734375 
Q 33.84375 13.328125 34.90625 17.4375 
Q 36.328125 22.703125 36.328125 35.296875 
Q 36.328125 47.90625 35.0625 52.609375 
Q 33.796875 57.328125 31.859375 58.90625 
Q 29.9375 60.5 27.4375 60.5 
z
" id="Arial-BoldMT-48"/>
       <path d="M 4.546875 16.546875 
L 17.828125 18.015625 
Q 18.3125 13.96875 20.359375 12.015625 
Q 22.40625 10.0625 25.78125 10.0625 
Q 30.03125 10.0625 33 13.96875 
Q 35.984375 17.875 36.8125 30.171875 
Q 31.640625 24.171875 23.875 24.171875 
Q 15.4375 24.171875 9.296875 30.6875 
Q 3.171875 37.203125 3.171875 47.65625 
Q 3.171875 58.546875 9.640625 65.203125 
Q 16.109375 71.875 26.125 71.875 
Q 37.015625 71.875 44 63.453125 
Q 50.984375 55.03125 50.984375 35.75 
Q 50.984375 16.109375 43.703125 7.421875 
Q 36.421875 -1.265625 24.75 -1.265625 
Q 16.359375 -1.265625 11.171875 3.203125 
Q 6 7.671875 4.546875 16.546875 
z
M 35.59375 46.53125 
Q 35.59375 53.171875 32.546875 56.828125 
Q 29.5 60.5 25.484375 60.5 
Q 21.6875 60.5 19.171875 57.5 
Q 16.65625 54.5 16.65625 47.65625 
Q 16.65625 40.71875 19.390625 37.46875 
Q 22.125 34.234375 26.21875 34.234375 
Q 30.171875 34.234375 32.875 37.359375 
Q 35.59375 40.484375 35.59375 46.53125 
z
" id="Arial-BoldMT-57"/>
      </defs>
      <g style="fill:#262626;" transform="translate(131.451612 531.609266)scale(0.253 -0.253)">
       <use xlink:href="#Arial-BoldMT-8722"/>
       <use x="58.398438" xlink:href="#Arial-BoldMT-48"/>
       <use x="114.013672" xlink:href="#Arial-BoldMT-46"/>
       <use x="141.796875" xlink:href="#Arial-BoldMT-57"/>
      </g>
     </g>
    </g>
    <g id="xtick_3">
     <g id="text_3">
      <!-- −0.6 -->
      <defs>
       <path d="M 50.734375 54.046875 
L 37.453125 52.59375 
Q 36.96875 56.6875 34.90625 58.640625 
Q 32.859375 60.59375 29.59375 60.59375 
Q 25.25 60.59375 22.234375 56.6875 
Q 19.234375 52.78125 18.453125 40.4375 
Q 23.578125 46.484375 31.203125 46.484375 
Q 39.796875 46.484375 45.921875 39.9375 
Q 52.046875 33.40625 52.046875 23.046875 
Q 52.046875 12.0625 45.59375 5.421875 
Q 39.15625 -1.21875 29.046875 -1.21875 
Q 18.21875 -1.21875 11.234375 7.203125 
Q 4.25 15.625 4.25 34.8125 
Q 4.25 54.5 11.515625 63.1875 
Q 18.796875 71.875 30.421875 71.875 
Q 38.578125 71.875 43.921875 67.3125 
Q 49.265625 62.75 50.734375 54.046875 
z
M 19.625 24.125 
Q 19.625 17.4375 22.703125 13.796875 
Q 25.78125 10.15625 29.734375 10.15625 
Q 33.546875 10.15625 36.078125 13.125 
Q 38.625 16.109375 38.625 22.90625 
Q 38.625 29.890625 35.890625 33.125 
Q 33.15625 36.375 29.046875 36.375 
Q 25.09375 36.375 22.359375 33.265625 
Q 19.625 30.171875 19.625 24.125 
z
" id="Arial-BoldMT-54"/>
      </defs>
      <g style="fill:#262626;" transform="translate(197.875114 531.609266)scale(0.253 -0.253)">
       <use xlink:href="#Arial-BoldMT-8722"/>
       <use x="58.398438" xlink:href="#Arial-BoldMT-48"/>
       <use x="114.013672" xlink:href="#Arial-BoldMT-46"/>
       <use x="141.796875" xlink:href="#Arial-BoldMT-54"/>
      </g>
     </g>
    </g>
    <g id="xtick_4">
     <g id="text_4">
      <!-- −0.3 -->
      <defs>
       <path d="M 3.765625 19 
L 17.046875 20.609375 
Q 17.671875 15.53125 20.453125 12.84375 
Q 23.25 10.15625 27.203125 10.15625 
Q 31.453125 10.15625 34.34375 13.375 
Q 37.25 16.609375 37.25 22.078125 
Q 37.25 27.25 34.46875 30.265625 
Q 31.6875 33.296875 27.6875 33.296875 
Q 25.046875 33.296875 21.390625 32.28125 
L 22.90625 43.453125 
Q 28.46875 43.3125 31.390625 45.875 
Q 34.328125 48.4375 34.328125 52.6875 
Q 34.328125 56.296875 32.171875 58.4375 
Q 30.03125 60.59375 26.46875 60.59375 
Q 22.953125 60.59375 20.453125 58.15625 
Q 17.96875 55.71875 17.4375 51.03125 
L 4.78125 53.171875 
Q 6.109375 59.671875 8.765625 63.546875 
Q 11.421875 67.4375 16.1875 69.65625 
Q 20.953125 71.875 26.859375 71.875 
Q 36.96875 71.875 43.0625 65.4375 
Q 48.09375 60.15625 48.09375 53.515625 
Q 48.09375 44.09375 37.796875 38.484375 
Q 43.953125 37.15625 47.625 32.5625 
Q 51.3125 27.984375 51.3125 21.484375 
Q 51.3125 12.0625 44.421875 5.421875 
Q 37.546875 -1.21875 27.296875 -1.21875 
Q 17.578125 -1.21875 11.171875 4.375 
Q 4.78125 9.96875 3.765625 19 
z
" id="Arial-BoldMT-51"/>
      </defs>
      <g style="fill:#262626;" transform="translate(264.298617 531.609266)scale(0.253 -0.253)">
       <use xlink:href="#Arial-BoldMT-8722"/>
       <use x="58.398438" xlink:href="#Arial-BoldMT-48"/>
       <use x="114.013672" xlink:href="#Arial-BoldMT-46"/>
       <use x="141.796875" xlink:href="#Arial-BoldMT-51"/>
      </g>
     </g>
    </g>
    <g id="xtick_5">
     <g id="text_5">
      <!-- 0.0 -->
      <g style="fill:#262626;" transform="translate(338.11051 531.609266)scale(0.253 -0.253)">
       <use xlink:href="#Arial-BoldMT-48"/>
       <use x="55.615234" xlink:href="#Arial-BoldMT-46"/>
       <use x="83.398438" xlink:href="#Arial-BoldMT-48"/>
      </g>
     </g>
    </g>
    <g id="xtick_6">
     <g id="text_6">
      <!-- 0.3 -->
      <g style="fill:#262626;" transform="translate(404.534012 531.609266)scale(0.253 -0.253)">
       <use xlink:href="#Arial-BoldMT-48"/>
       <use x="55.615234" xlink:href="#Arial-BoldMT-46"/>
       <use x="83.398438" xlink:href="#Arial-BoldMT-51"/>
      </g>
     </g>
    </g>
    <g id="xtick_7">
     <g id="text_7">
      <!-- 0.6 -->
      <g style="fill:#262626;" transform="translate(470.957515 531.609266)scale(0.253 -0.253)">
       <use xlink:href="#Arial-BoldMT-48"/>
       <use x="55.615234" xlink:href="#Arial-BoldMT-46"/>
       <use x="83.398438" xlink:href="#Arial-BoldMT-54"/>
      </g>
     </g>
    </g>
    <g id="xtick_8">
     <g id="text_8">
      <!-- 0.9 -->
      <g style="fill:#262626;" transform="translate(537.381017 531.609266)scale(0.253 -0.253)">
       <use xlink:href="#Arial-BoldMT-48"/>
       <use x="55.615234" xlink:href="#Arial-BoldMT-46"/>
       <use x="83.398438" xlink:href="#Arial-BoldMT-57"/>
      </g>
     </g>
    </g>
    <g id="xtick_9">
     <g id="text_9">
      <!-- 1.2 -->
      <g style="fill:#262626;" transform="translate(603.80452 531.609266)scale(0.253 -0.253)">
       <use xlink:href="#Arial-BoldMT-49"/>
       <use x="55.615234" xlink:href="#Arial-BoldMT-46"/>
       <use x="83.398438" xlink:href="#Arial-BoldMT-50"/>
      </g>
     </g>
    </g>
    <g id="text_10">
     <!--   -->
     <defs>
      <path id="ArialMT-32"/>
     </defs>
     <g style="fill:#262626;" transform="translate(365.166187 560.357625)scale(0.276 -0.276)">
      <use xlink:href="#ArialMT-32"/>
     </g>
    </g>
   </g>
   <g id="matplotlib.axis_2">
    <g id="ytick_1">
     <g id="text_11">
      <!-- 20 -->
      <g style="fill:#262626;" transform="translate(52.361656 453.029788)scale(0.253 -0.253)">
       <use xlink:href="#Arial-BoldMT-50"/>
       <use x="55.615234" xlink:href="#Arial-BoldMT-48"/>
      </g>
     </g>
    </g>
    <g id="ytick_2">
     <g id="text_12">
      <!-- 60 -->
      <g style="fill:#262626;" transform="translate(52.361656 332.980099)scale(0.253 -0.253)">
       <use xlink:href="#Arial-BoldMT-54"/>
       <use x="55.615234" xlink:href="#Arial-BoldMT-48"/>
      </g>
     </g>
    </g>
    <g id="ytick_3">
     <g id="text_13">
      <!-- 100 -->
      <g style="fill:#262626;" transform="translate(38.292484 212.930409)scale(0.253 -0.253)">
       <use xlink:href="#Arial-BoldMT-49"/>
       <use x="55.615234" xlink:href="#Arial-BoldMT-48"/>
       <use x="111.230469" xlink:href="#Arial-BoldMT-48"/>
      </g>
     </g>
    </g>
    <g id="ytick_4">
     <g id="text_14">
      <!-- 140 -->
      <defs>
       <path d="M 31.15625 0 
L 31.15625 14.40625 
L 1.859375 14.40625 
L 1.859375 26.421875 
L 32.90625 71.875 
L 44.4375 71.875 
L 44.4375 26.46875 
L 53.328125 26.46875 
L 53.328125 14.40625 
L 44.4375 14.40625 
L 44.4375 0 
z
M 31.15625 26.46875 
L 31.15625 50.921875 
L 14.703125 26.46875 
z
" id="Arial-BoldMT-52"/>
      </defs>
      <g style="fill:#262626;" transform="translate(38.292484 92.88072)scale(0.253 -0.253)">
       <use xlink:href="#Arial-BoldMT-49"/>
       <use x="55.615234" xlink:href="#Arial-BoldMT-52"/>
       <use x="111.230469" xlink:href="#Arial-BoldMT-48"/>
      </g>
     </g>
    </g>
   </g>
   <g id="patch_3">
    <path clip-path="url(#pf8ce1aa3e9)" d="M 321.630675 504 
L 331.991606 504 
L 331.991606 497.997516 
L 321.630675 497.997516 
z
" style="fill:#f5f5f5;stroke:#000000;stroke-linejoin:miter;stroke-width:2;"/>
   </g>
   <g id="patch_4">
    <path clip-path="url(#pf8ce1aa3e9)" d="M 331.991606 504 
L 342.352537 504 
L 342.352537 500.998758 
L 331.991606 500.998758 
z
" style="fill:#f5f5f5;stroke:#000000;stroke-linejoin:miter;stroke-width:2;"/>
   </g>
   <g id="patch_5">
    <path clip-path="url(#pf8ce1aa3e9)" d="M 342.352537 504 
L 352.713468 504 
L 352.713468 485.992547 
L 342.352537 485.992547 
z
" style="fill:#f5f5f5;stroke:#000000;stroke-linejoin:miter;stroke-width:2;"/>
   </g>
   <g id="patch_6">
    <path clip-path="url(#pf8ce1aa3e9)" d="M 352.713468 504 
L 363.074399 504 
L 363.074399 251.895652 
L 352.713468 251.895652 
z
" style="fill:#f5f5f5;stroke:#000000;stroke-linejoin:miter;stroke-width:2;"/>
   </g>
   <g id="patch_7">
    <path clip-path="url(#pf8ce1aa3e9)" d="M 363.074399 504 
L 373.43533 504 
L 373.43533 116.839752 
L 363.074399 116.839752 
z
" style="fill:#f5f5f5;stroke:#000000;stroke-linejoin:miter;stroke-width:2;"/>
   </g>
   <g id="patch_8">
    <path clip-path="url(#pf8ce1aa3e9)" d="M 373.43533 504 
L 383.796261 504 
L 383.796261 89.828571 
L 373.43533 89.828571 
z
" style="fill:#f5f5f5;stroke:#000000;stroke-linejoin:miter;stroke-width:2;"/>
   </g>
   <g id="patch_9">
    <path clip-path="url(#pf8ce1aa3e9)" d="M 383.796261 504 
L 394.157192 504 
L 394.157192 296.914286 
L 383.796261 296.914286 
z
" style="fill:#f5f5f5;stroke:#000000;stroke-linejoin:miter;stroke-width:2;"/>
   </g>
   <g id="patch_10">
    <path clip-path="url(#pf8ce1aa3e9)" d="M 394.157192 504 
L 404.518123 504 
L 404.518123 389.952795 
L 394.157192 389.952795 
z
" style="fill:#f5f5f5;stroke:#000000;stroke-linejoin:miter;stroke-width:2;"/>
   </g>
   <g id="patch_11">
    <path clip-path="url(#pf8ce1aa3e9)" d="M 404.518123 504 
L 414.879054 504 
L 414.879054 479.990062 
L 404.518123 479.990062 
z
" style="fill:#f5f5f5;stroke:#000000;stroke-linejoin:miter;stroke-width:2;"/>
   </g>
   <g id="patch_12">
    <path clip-path="url(#pf8ce1aa3e9)" d="M 414.879054 504 
L 425.239985 504 
L 425.239985 491.995031 
L 414.879054 491.995031 
z
" style="fill:#f5f5f5;stroke:#000000;stroke-linejoin:miter;stroke-width:2;"/>
   </g>
   <g id="patch_13">
    <path clip-path="url(#pf8ce1aa3e9)" d="M 425.239985 504 
L 435.600916 504 
L 435.600916 504 
L 425.239985 504 
z
" style="fill:#f5f5f5;stroke:#000000;stroke-linejoin:miter;stroke-width:2;"/>
   </g>
   <g id="patch_14">
    <path clip-path="url(#pf8ce1aa3e9)" d="M 435.600916 504 
L 445.961847 504 
L 445.961847 504 
L 435.600916 504 
z
" style="fill:#f5f5f5;stroke:#000000;stroke-linejoin:miter;stroke-width:2;"/>
   </g>
   <g id="patch_15">
    <path clip-path="url(#pf8ce1aa3e9)" d="M 445.961847 504 
L 456.322778 504 
L 456.322778 504 
L 445.961847 504 
z
" style="fill:#f5f5f5;stroke:#000000;stroke-linejoin:miter;stroke-width:2;"/>
   </g>
   <g id="patch_16">
    <path clip-path="url(#pf8ce1aa3e9)" d="M 456.322778 504 
L 466.683709 504 
L 466.683709 504 
L 456.322778 504 
z
" style="fill:#f5f5f5;stroke:#000000;stroke-linejoin:miter;stroke-width:2;"/>
   </g>
   <g id="patch_17">
    <path clip-path="url(#pf8ce1aa3e9)" d="M 466.683709 504 
L 477.044639 504 
L 477.044639 500.998758 
L 466.683709 500.998758 
z
" style="fill:#f5f5f5;stroke:#000000;stroke-linejoin:miter;stroke-width:2;"/>
   </g>
   <g id="patch_18">
    <path clip-path="url(#pf8ce1aa3e9)" d="M 477.044639 504 
L 487.40557 504 
L 487.40557 504 
L 477.044639 504 
z
" style="fill:#f5f5f5;stroke:#000000;stroke-linejoin:miter;stroke-width:2;"/>
   </g>
   <g id="patch_19">
    <path clip-path="url(#pf8ce1aa3e9)" d="M 487.40557 504 
L 497.766501 504 
L 497.766501 504 
L 487.40557 504 
z
" style="fill:#f5f5f5;stroke:#000000;stroke-linejoin:miter;stroke-width:2;"/>
   </g>
   <g id="patch_20">
    <path clip-path="url(#pf8ce1aa3e9)" d="M 497.766501 504 
L 508.127432 504 
L 508.127432 500.998758 
L 497.766501 500.998758 
z
" style="fill:#f5f5f5;stroke:#000000;stroke-linejoin:miter;stroke-width:2;"/>
   </g>
   <g id="patch_21">
    <path clip-path="url(#pf8ce1aa3e9)" d="M 508.127432 504 
L 518.488363 504 
L 518.488363 504 
L 508.127432 504 
z
" style="fill:#f5f5f5;stroke:#000000;stroke-linejoin:miter;stroke-width:2;"/>
   </g>
   <g id="patch_22">
    <path clip-path="url(#pf8ce1aa3e9)" d="M 518.488363 504 
L 528.849294 504 
L 528.849294 504 
L 518.488363 504 
z
" style="fill:#f5f5f5;stroke:#000000;stroke-linejoin:miter;stroke-width:2;"/>
   </g>
   <g id="patch_23">
    <path clip-path="url(#pf8ce1aa3e9)" d="M 528.849294 504 
L 539.210225 504 
L 539.210225 504 
L 528.849294 504 
z
" style="fill:#f5f5f5;stroke:#000000;stroke-linejoin:miter;stroke-width:2;"/>
   </g>
   <g id="patch_24">
    <path clip-path="url(#pf8ce1aa3e9)" d="M 539.210225 504 
L 549.571156 504 
L 549.571156 504 
L 539.210225 504 
z
" style="fill:#f5f5f5;stroke:#000000;stroke-linejoin:miter;stroke-width:2;"/>
   </g>
   <g id="patch_25">
    <path clip-path="url(#pf8ce1aa3e9)" d="M 549.571156 504 
L 559.932087 504 
L 559.932087 504 
L 549.571156 504 
z
" style="fill:#f5f5f5;stroke:#000000;stroke-linejoin:miter;stroke-width:2;"/>
   </g>
   <g id="patch_26">
    <path clip-path="url(#pf8ce1aa3e9)" d="M 559.932087 504 
L 570.293018 504 
L 570.293018 504 
L 559.932087 504 
z
" style="fill:#f5f5f5;stroke:#000000;stroke-linejoin:miter;stroke-width:2;"/>
   </g>
   <g id="patch_27">
    <path clip-path="url(#pf8ce1aa3e9)" d="M 570.293018 504 
L 580.653949 504 
L 580.653949 504 
L 570.293018 504 
z
" style="fill:#f5f5f5;stroke:#000000;stroke-linejoin:miter;stroke-width:2;"/>
   </g>
   <g id="patch_28">
    <path clip-path="url(#pf8ce1aa3e9)" d="M 580.653949 504 
L 591.01488 504 
L 591.01488 504 
L 580.653949 504 
z
" style="fill:#f5f5f5;stroke:#000000;stroke-linejoin:miter;stroke-width:2;"/>
   </g>
   <g id="patch_29">
    <path clip-path="url(#pf8ce1aa3e9)" d="M 591.01488 504 
L 601.375811 504 
L 601.375811 504 
L 591.01488 504 
z
" style="fill:#f5f5f5;stroke:#000000;stroke-linejoin:miter;stroke-width:2;"/>
   </g>
   <g id="patch_30">
    <path clip-path="url(#pf8ce1aa3e9)" d="M 601.375811 504 
L 611.736742 504 
L 611.736742 504 
L 601.375811 504 
z
" style="fill:#f5f5f5;stroke:#000000;stroke-linejoin:miter;stroke-width:2;"/>
   </g>
   <g id="patch_31">
    <path clip-path="url(#pf8ce1aa3e9)" d="M 611.736742 504 
L 622.097673 504 
L 622.097673 504 
L 611.736742 504 
z
" style="fill:#f5f5f5;stroke:#000000;stroke-linejoin:miter;stroke-width:2;"/>
   </g>
   <g id="patch_32">
    <path clip-path="url(#pf8ce1aa3e9)" d="M 622.097673 504 
L 632.458604 504 
L 632.458604 500.998758 
L 622.097673 500.998758 
z
" style="fill:#f5f5f5;stroke:#000000;stroke-linejoin:miter;stroke-width:2;"/>
   </g>
   <g id="patch_33">
    <path d="M 90 504 
L 90 69.12 
" style="fill:none;stroke:#262626;stroke-linecap:square;stroke-linejoin:miter;stroke-width:1.25;"/>
   </g>
   <g id="patch_34">
    <path d="M 648 504 
L 648 69.12 
" style="fill:none;stroke:#262626;stroke-linecap:square;stroke-linejoin:miter;stroke-width:1.25;"/>
   </g>
   <g id="patch_35">
    <path d="M 90 504 
L 648 504 
" style="fill:none;stroke:#262626;stroke-linecap:square;stroke-linejoin:miter;stroke-width:1.25;"/>
   </g>
   <g id="patch_36">
    <path d="M 90 69.12 
L 648 69.12 
" style="fill:none;stroke:#262626;stroke-linecap:square;stroke-linejoin:miter;stroke-width:1.25;"/>
   </g>
  </g>
 </g>
 <defs>
  <clipPath id="pf8ce1aa3e9">
   <rect height="434.88" width="558" x="90" y="69.12"/>
  </clipPath>
 </defs>
</svg>
