<svg width="101" height="101" viewBox="0 0 101 101" fill="none" xmlns="http://www.w3.org/2000/svg">
<path d="M97.7422 33.0273C93.5117 20.0156 84.4648 9.38672 72.2422 3.14453L71.5859 4.42578C83.457 10.4883 92.2656 20.8047 96.3672 33.4688C100.469 46.1328 99.4141 59.7422 93.3555 71.6133C87.293 83.4805 76.9648 92.3086 64.2812 96.4023C51.5898 100.512 38.0586 99.4492 26.168 93.3789C14.2969 87.3164 5.47266 76.9883 1.37891 64.3047L0.00390625 64.75C4.24609 77.7891 13.293 88.418 25.5156 94.6562C37.7383 100.898 51.6719 102.004 64.7266 97.7734C77.7813 93.543 88.3945 84.4883 94.6328 72.2656C100.863 60.0625 101.941 46.0898 97.75 33.0547C97.75 33.0547 97.75 33.0547 97.7422 33.0273Z" fill="#FF715B"/>
<path d="M63.7734 94.832C63.8008 94.8242 63.8008 94.8242 63.8008 94.8242C76.0547 90.836 86.0273 82.3438 91.8867 70.8633C97.75 59.3828 98.793 46.3047 94.8164 34.0352C90.8398 21.7617 82.3281 11.7813 70.8477 5.91799L69.7109 8.14455C80.582 13.6953 88.6484 23.168 92.4336 34.8047C96.2031 46.4336 95.2227 58.8399 89.6641 69.7266C84.0859 80.6055 74.6289 88.6836 63.0117 92.4297C51.3828 96.1992 38.9297 95.2188 28.0625 89.668C17.1758 84.1094 9.10547 74.6328 5.33984 63.0078C1.57031 51.3789 2.55078 38.9727 8.10937 28.086C13.668 17.1992 23.1641 9.14064 34.7734 5.3633C46.3984 1.59767 58.8047 2.57814 69.6914 8.13674L70.8281 5.91017C59.3672 0.0586109 46.3008 -1.00389 34.0273 2.97267C34.0273 2.97267 34.0273 2.97267 34 2.98049C34 2.98049 34 2.98049 33.9727 2.9922C21.7578 6.94924 11.7383 15.4883 5.88672 26.9492C0.0234361 38.4297 -1.01953 51.5078 2.95703 63.7774C6.93359 76.0508 15.4453 86.0313 26.9258 91.8945C38.3867 97.7461 51.5117 98.7891 63.7734 94.832Z" fill="#FF715B"/>
<path d="M13.8711 73.957C13.9375 73.8281 13.918 73.6797 13.8359 73.5664C13.6875 73.3516 13.5508 73.1641 13.4023 72.9492C13.2852 72.7695 13.0508 72.7227 12.875 72.8399C12.6953 72.9609 12.6484 73.1914 12.7656 73.3711C12.9141 73.5859 13.0625 73.8008 13.207 74.0156C13.3281 74.1953 13.5703 74.2266 13.7461 74.1055C13.7969 74.0586 13.8437 74.0117 13.8711 73.957Z" fill="#FF715B"/>
<path d="M16.1992 76.9961C16.2656 76.8633 16.2578 76.6953 16.1563 76.5742C16 76.3789 15.8438 76.1797 15.6602 75.9922C15.5313 75.832 15.2891 75.8047 15.1289 75.9336C14.9688 76.0625 14.9414 76.3047 15.0703 76.4648C15.2266 76.6602 15.4023 76.8672 15.5586 77.0625C15.707 77.2344 15.9492 77.2617 16.1172 77.1133C16.1523 77.0859 16.1836 77.0313 16.1992 76.9961Z" fill="#FF715B"/>
<path d="M11.793 70.7461C11.8477 70.6328 11.8516 70.4922 11.7852 70.3906C11.668 70.168 11.5391 69.961 11.418 69.7344C11.3281 69.5508 11.0781 69.4922 10.8906 69.582C10.7031 69.6758 10.6445 69.9258 10.7344 70.1133C10.8555 70.336 10.9922 70.5703 11.1211 70.7774C11.2227 70.9453 11.4727 71.0039 11.6406 70.9024C11.707 70.8672 11.7656 70.8008 11.793 70.7461Z" fill="#FF715B"/>
<path d="M23.4883 84.3867C23.6914 84.5351 23.8945 84.6875 24.125 84.8281C24.3008 84.9414 24.5352 84.8984 24.668 84.7305C24.6758 84.7109 24.6875 84.6953 24.6875 84.6953C24.7695 84.5273 24.7188 84.3125 24.5586 84.207C24.3555 84.0586 24.1445 83.9258 23.9375 83.7734C23.7734 83.6445 23.5195 83.6797 23.4063 83.8555C23.293 84.0312 23.3203 84.2539 23.4883 84.3867Z" fill="#FF715B"/>
<path d="M26.7305 86.4609C26.9414 86.5938 27.1836 86.7188 27.3984 86.8516C27.582 86.9453 27.8164 86.8984 27.918 86.6953L27.9297 86.6758C28.0234 86.4922 27.9492 86.2695 27.7656 86.1719C27.5508 86.0391 27.3281 85.9258 27.1172 85.793C26.9219 85.7188 26.707 85.7734 26.5938 85.9492C26.4805 86.125 26.543 86.3672 26.7305 86.4609Z" fill="#FF715B"/>
<path d="M19.082 18.0938C19.2695 17.9063 19.4492 17.7422 19.6289 17.5742C19.6641 17.5469 19.6836 17.5117 19.7031 17.4727C19.7773 17.3242 19.7539 17.1484 19.6406 17.043C19.4844 16.8945 19.2617 16.875 19.0898 17.0195C18.9023 17.207 18.7266 17.3711 18.5391 17.5586C18.3867 17.7149 18.3867 17.9453 18.5234 18.0859C18.6992 18.2461 18.9336 18.25 19.082 18.0938Z" fill="#FF715B"/>
<path d="M10.0547 67.0039C9.9336 66.7813 9.84376 66.5469 9.73438 66.3047C9.64454 66.1172 9.42969 66.0313 9.22266 66.1133C9.03516 66.2031 8.95313 66.418 9.03516 66.625C9.14454 66.8672 9.24219 67.0821 9.35157 67.3242C9.4336 67.5313 9.66016 67.5977 9.86329 67.5156C9.94923 67.4883 10.0039 67.4219 10.043 67.3477C10.0899 67.2578 10.1094 67.125 10.0547 67.0039Z" fill="#FF715B"/>
<path d="M8.58593 63.5196C8.49218 63.2852 8.41015 63.0313 8.33984 62.8086C8.27734 62.6133 8.05468 62.5 7.85546 62.5625C7.66015 62.625 7.54687 62.8477 7.60937 63.043C7.6914 63.2969 7.78515 63.5313 7.86327 63.7813C7.92968 63.9805 8.15234 64.0938 8.35546 64.0117C8.44921 63.9649 8.53515 63.8906 8.57421 63.8164C8.62109 63.7227 8.6289 63.6133 8.58593 63.5196Z" fill="#FF715B"/>
<path d="M41.875 91.9727C42.0391 92.0117 42.2109 91.9102 42.2852 91.7617C42.3047 91.7266 42.3242 91.6875 42.3242 91.6406C42.3633 91.4297 42.2227 91.2422 42.0117 91.2031C41.7383 91.1797 41.5078 91.1328 41.2461 91.0937C41.0352 91.0547 40.8477 91.1914 40.8086 91.4062C40.7695 91.6211 40.9062 91.8086 41.1211 91.8477C41.3789 91.8867 41.6328 91.9453 41.875 91.9727Z" fill="#FF715B"/>
<path d="M21.6016 82.4414C21.6133 82.4219 21.6328 82.3867 21.6406 82.3672C21.7188 82.2188 21.6797 82.0156 21.5508 81.9023C21.3594 81.7305 21.1563 81.582 20.9805 81.4219C20.793 81.2813 20.5508 81.2969 20.418 81.4648C20.2891 81.6289 20.3047 81.8711 20.4727 82.0039C20.6641 82.1719 20.8594 82.3438 21.0625 82.4922C21.2305 82.625 21.4727 82.6094 21.6016 82.4414Z" fill="#FF715B"/>
<path d="M34.4219 90.0391C34.5977 90.1055 34.8008 90.0235 34.8867 89.8555C34.8984 89.836 34.9063 89.8203 34.9063 89.8203C34.9805 89.625 34.8633 89.3985 34.6602 89.3438C34.418 89.2657 34.1836 89.1719 33.9531 89.0742C33.7578 89 33.543 89.1016 33.4688 89.293C33.3906 89.4883 33.4922 89.7032 33.6875 89.7813C33.918 89.875 34.1797 89.961 34.4219 90.0391Z" fill="#FF715B"/>
<path d="M16.9766 20.2891C16.9961 20.2539 17.0234 20.2461 17.043 20.2071C17.1211 20.0586 17.1016 19.8633 16.9531 19.7422C16.7969 19.5899 16.5547 19.6094 16.4219 19.7735C16.2539 19.9688 16.0859 20.1641 15.9141 20.3555C15.7852 20.5235 15.8008 20.7657 15.9492 20.8867C16.1055 21.0391 16.3477 21.0196 16.4805 20.8555C16.6484 20.6602 16.8164 20.4649 16.9766 20.2891Z" fill="#FF715B"/>
<path d="M38.1172 91.1797C38.3047 91.2266 38.4727 91.125 38.5469 90.9766C38.5586 90.957 38.5742 90.9219 38.5859 90.9024C38.6445 90.6992 38.5156 90.4922 38.3086 90.4336C38.0391 90.3672 37.8086 90.3203 37.5664 90.2422C37.3633 90.1836 37.1563 90.3125 37.0977 90.5156C37.0391 90.7227 37.168 90.9297 37.375 90.9844C37.625 91.043 37.8672 91.1211 38.1172 91.1797Z" fill="#FF715B"/>
<path d="M18.7266 79.9219C18.7656 79.8945 18.7852 79.8555 18.8047 79.8203C18.8789 79.6719 18.8516 79.4961 18.7344 79.3633C18.5469 79.1758 18.3711 79.0156 18.1875 78.8281C18.0313 78.6758 17.7969 78.6758 17.6484 78.832C17.4961 78.9883 17.4961 79.2227 17.6523 79.3711C17.8359 79.5586 18.0234 79.7461 18.1875 79.9258C18.3438 80.0781 18.5781 80.0781 18.7266 79.9219Z" fill="#FF715B"/>
<path d="M22.5156 15.1211C22.5625 15.0742 22.6016 15.0469 22.6289 14.9922C22.6953 14.8633 22.6875 14.6953 22.5859 14.5742C22.457 14.4141 22.2148 14.3828 22.0547 14.5117C21.8594 14.668 21.6641 14.8282 21.457 15C21.2969 15.1289 21.2656 15.3711 21.3945 15.5313C21.5234 15.6914 21.7656 15.7227 21.9258 15.5938C22.1211 15.4375 22.3203 15.2774 22.5156 15.1211Z" fill="#FF715B"/>
<path d="M30.8477 88.6094C31.0117 88.6953 31.2383 88.625 31.3398 88.418C31.4375 88.2344 31.3438 88 31.1602 87.9063C30.9258 87.8125 30.7031 87.6953 30.4844 87.582C30.2969 87.4883 30.0625 87.5781 29.9688 87.7656C29.875 87.9492 29.9648 88.1836 30.1523 88.2813C30.375 88.3945 30.625 88.4961 30.8477 88.6094Z" fill="#FF715B"/>
<path d="M35.7188 8.13672C35.7734 8.11719 35.8555 8.08985 35.8867 8.08203C35.9961 8.04688 36.0547 7.98047 36.1016 7.89063C36.1484 7.79688 36.1484 7.70313 36.1328 7.60156C36.0664 7.40235 35.8438 7.28906 35.6484 7.35547C35.5938 7.3711 35.5078 7.39844 35.4531 7.41797C35.2773 7.49219 35.0898 7.53516 34.9219 7.58985C34.7227 7.65235 34.6094 7.875 34.6758 8.07031C34.7383 8.26953 34.9609 8.38281 35.1563 8.32031C35.3242 8.26563 35.5391 8.21094 35.7188 8.13672Z" fill="#FF715B"/>
<path d="M14.5977 23.2149C14.6055 23.1953 14.6172 23.1758 14.625 23.1602C14.7109 22.9922 14.6758 22.7852 14.5156 22.6836C14.3516 22.5508 14.0977 22.586 13.9844 22.7618C13.8359 22.9649 13.6836 23.168 13.5234 23.3907C13.3906 23.5586 13.4375 23.7891 13.6055 23.9219C13.7695 24.0547 14.0117 23.9922 14.1445 23.8243C14.2969 23.6211 14.4453 23.418 14.5977 23.2149Z" fill="#FF715B"/>
<path d="M7.44921 59.875C7.38671 59.6328 7.32421 59.3907 7.26171 59.1485C7.20703 58.9336 7.01171 58.8125 6.79687 58.8672C6.58203 58.918 6.46093 59.1133 6.51562 59.3282C6.57812 59.5703 6.63281 59.8321 6.71484 60.086C6.77734 60.2813 6.98828 60.4141 7.1875 60.3477C7.29687 60.3125 7.38281 60.2383 7.42968 60.1485C7.46874 60.0742 7.47656 59.961 7.44921 59.875Z" fill="#FF715B"/>
<path d="M44.6016 91.9414C44.5898 92.1445 44.7461 92.3438 44.9531 92.3516C45.2031 92.3633 45.4648 92.4024 45.7148 92.4141C45.875 92.4258 46.0156 92.3359 46.082 92.2031C46.1016 92.168 46.1289 92.1133 46.1289 92.0664C46.1406 91.8594 45.9844 91.6641 45.7773 91.6524C45.5078 91.6328 45.2578 91.6211 45.0156 91.5899C44.8086 91.5781 44.6211 91.7188 44.6016 91.9414Z" fill="#FF715B"/>
<path d="M68.6328 10.0274C68.4492 9.93362 68.2227 10.0039 68.1289 10.1914C68.0352 10.375 68.1094 10.5977 68.293 10.6953L68.3672 10.7305L68.7188 10.0469L68.6328 10.0274Z" fill="#FF715B"/>
<path d="M6.64453 56.1914C6.60937 55.9375 6.5625 55.707 6.51172 55.4453C6.47656 55.2383 6.28906 55.0977 6.0664 55.125C5.84375 55.1524 5.71875 55.3438 5.74609 55.5703C5.78125 55.8203 5.83594 56.082 5.87109 56.332C5.90625 56.5391 6.10937 56.6914 6.3125 56.6524C6.45312 56.6094 6.5664 56.5274 6.61328 56.4336C6.65234 56.3594 6.67187 56.2734 6.64453 56.1914Z" fill="#FF715B"/>
<path d="M69.4023 10.4414C69.1797 10.3281 68.9414 10.207 68.7188 10.0938L68.3672 10.7773C68.5977 10.875 68.8203 10.9883 69.043 11.1016C69.2305 11.1953 69.4727 11.1328 69.5664 10.9453C69.6602 10.7617 69.5898 10.5391 69.4023 10.4414Z" fill="#FF715B"/>
<path d="M11.7969 25.9453C11.668 26.1602 11.5234 26.3906 11.3906 26.6055C11.2773 26.7813 11.3437 27.0234 11.5195 27.1367C11.7227 27.2422 11.9648 27.1797 12.0586 26.9922C12.1914 26.7813 12.3242 26.5664 12.457 26.3516C12.4648 26.3359 12.4648 26.3359 12.4766 26.3164C12.5586 26.1484 12.5156 25.9141 12.332 25.8203C12.1562 25.707 11.9102 25.7695 11.7969 25.9453Z" fill="#FF715B"/>
<path d="M6.12499 52.6289C6.15234 52.5743 6.17187 52.4883 6.16405 52.4141C6.14843 52.1719 6.12109 51.9024 6.10546 51.6602C6.09765 51.4453 5.90234 51.2774 5.69921 51.3125C5.48437 51.3203 5.32421 51.4961 5.35155 51.7188C5.35546 51.9805 5.39062 52.2305 5.39843 52.4922C5.40624 52.7071 5.60937 52.8555 5.80468 52.8399C5.95702 52.8243 6.0664 52.7383 6.12499 52.6289Z" fill="#FF715B"/>
<path d="M91.3242 54.8867C91.293 55.1289 91.2539 55.3867 91.2148 55.6485C91.1758 55.8633 91.332 56.0586 91.5273 56.0899C91.707 56.1094 91.8633 56.0274 91.9297 55.8985C91.9492 55.8594 91.9687 55.8242 91.9687 55.7774C92.0078 55.5156 92.0391 55.2735 92.0781 55.0117C92.1172 54.8008 91.9609 54.6016 91.7539 54.5899C91.5508 54.5352 91.3633 54.6719 91.3242 54.8867Z" fill="#FF715B"/>
<path d="M50.875 5.33206C50.625 5.32034 50.3711 5.30862 50.1133 5.31643C49.9062 5.30472 49.7305 5.46878 49.707 5.69534C49.6953 5.89847 49.8633 6.07815 50.0859 6.09768C50.3281 6.08206 50.582 6.09378 50.832 6.1055C50.9883 6.11331 51.1289 6.02347 51.1953 5.89456C51.2266 5.83597 51.2266 5.78909 51.2344 5.72659C51.2461 5.51956 51.082 5.34378 50.875 5.33206Z" fill="#FF715B"/>
<path d="M90.6406 58.6055C90.582 58.8555 90.5273 59.1094 90.457 59.332C90.4023 59.5352 90.5313 59.7422 90.7344 59.7969C90.918 59.8477 91.0898 59.7461 91.1641 59.5977C91.1719 59.5781 91.1914 59.543 91.2031 59.5235C91.2617 59.2735 91.3164 59.0195 91.375 58.7695C91.4336 58.5664 91.3047 58.3594 91.0898 58.3203C90.8867 58.2617 90.6797 58.3906 90.6406 58.6055Z" fill="#FF715B"/>
<path d="M89.6133 62.2656C89.5391 62.5078 89.4609 62.75 89.3672 62.9805C89.2891 63.1758 89.4102 63.4024 89.6055 63.4766C89.7813 63.543 89.9844 63.4609 90.0703 63.293C90.082 63.2774 90.0898 63.2578 90.0977 63.2383C90.1758 62.9961 90.2695 62.7656 90.3555 62.5039C90.4141 62.3008 90.3125 62.0859 90.1094 62.0274C89.8945 61.9414 89.6719 62.0625 89.6133 62.2656Z" fill="#FF715B"/>
<path d="M57.7617 6.17971C57.5469 6.14065 57.3398 6.26955 57.3008 6.4844C57.2617 6.69924 57.3906 6.90627 57.6055 6.94533C57.8359 6.99221 58.0898 7.0508 58.3398 7.1094C58.5078 7.14846 58.6953 7.05471 58.7695 6.90627C58.7891 6.87111 58.7969 6.85158 58.7969 6.80471C58.8359 6.58986 58.707 6.38283 58.5117 6.35549C58.2617 6.2969 58.0117 6.2383 57.7617 6.17971Z" fill="#FF715B"/>
<path d="M54.6914 5.69142C54.4297 5.64845 54.1875 5.62111 53.918 5.59767C53.6953 5.57814 53.5273 5.72658 53.4883 5.94142C53.4648 6.16408 53.6133 6.33205 53.8281 6.37111C54.0898 6.3633 54.3477 6.40236 54.5898 6.43361C54.7695 6.45314 54.9102 6.3633 54.9766 6.23048C54.9922 6.19533 55.0117 6.15627 55.0117 6.1133C55.0508 5.89845 54.8945 5.69923 54.6914 5.69142Z" fill="#FF715B"/>
<path d="M43.5664 6.23047C43.6055 6.15625 43.6133 6.08985 43.6055 6.01563C43.5703 5.8086 43.3828 5.66797 43.1719 5.67579C42.918 5.71094 42.668 5.7461 42.4141 5.78125C42.2109 5.81641 42.0664 6.00001 42.0937 6.22657C42.1289 6.42969 42.3164 6.57032 42.5391 6.54688C42.7734 6.5 43.0234 6.46485 43.2773 6.42969C43.4062 6.40625 43.5078 6.33985 43.5664 6.23047Z" fill="#FF715B"/>
<path d="M47.0195 5.32815C46.7578 5.33206 46.5156 5.35159 46.2461 5.37503C46.0312 5.38284 45.8711 5.55862 45.8984 5.78128C45.9062 5.99612 46.082 6.15628 46.3047 6.13284C46.5469 6.11331 46.7891 6.09769 47.0508 6.08987C47.1914 6.08987 47.3125 5.99222 47.3672 5.87894C47.3984 5.82425 47.4062 5.75784 47.418 5.69144C47.4101 5.4805 47.2344 5.32034 47.0195 5.32815Z" fill="#FF715B"/>
<path d="M89.4961 33.3281C89.543 33.2344 89.5547 33.125 89.5156 33.0117C89.4258 32.7774 89.3164 32.5352 89.2227 32.3008C89.1406 32.0977 88.9297 32.0117 88.7227 32.0938C88.5195 32.1758 88.4219 32.4063 88.5156 32.5938C88.6055 32.8281 88.6953 33.0625 88.7891 33.293C88.8711 33.5 89.082 33.5859 89.2891 33.5039C89.3828 33.457 89.457 33.4024 89.4961 33.3281Z" fill="#FF715B"/>
<path d="M78.7969 17.6953C78.8164 17.6563 78.8437 17.6484 78.8633 17.6094C78.9375 17.4609 78.9102 17.2852 78.7891 17.1524C78.5977 16.9844 78.4102 16.7969 78.2187 16.625C78.0625 16.4766 77.8203 16.4922 77.668 16.6484C77.5195 16.8086 77.5352 17.0508 77.6914 17.1992C77.8867 17.3711 78.0625 17.5274 78.2461 17.7188C78.4023 17.8672 78.6445 17.8516 78.7969 17.6953Z" fill="#FF715B"/>
<path d="M88.2695 65.8125C88.1758 66.043 88.082 66.2774 87.9687 66.5C87.8711 66.6836 87.9648 66.918 88.1602 66.9961C88.3437 67.0899 88.5781 67 88.6641 66.8321L88.6719 66.8125C88.7656 66.5821 88.8906 66.3399 88.9844 66.1094C89.0625 65.9141 88.9883 65.6875 88.7773 65.6016C88.5625 65.5156 88.3555 65.5977 88.2695 65.8125Z" fill="#FF715B"/>
<path d="M80.4219 19.3203C80.2617 19.4492 80.25 19.6992 80.3984 19.8672C80.5625 20.0469 80.7383 20.2539 80.9062 20.4297C81.0351 20.5899 81.2852 20.6016 81.4453 20.4727C81.4844 20.4453 81.5 20.4063 81.5312 20.3516C81.5976 20.2227 81.5898 20.0547 81.4687 19.9219C81.293 19.7188 81.1289 19.5391 80.9414 19.3516C80.8125 19.1914 80.5625 19.1797 80.4219 19.3203Z" fill="#FF715B"/>
<path d="M85.9375 26.6484C86.0039 26.6133 86.0508 26.5664 86.0899 26.4922C86.1445 26.3789 86.1445 26.2422 86.0742 26.1094C85.9258 25.8945 85.8047 25.668 85.6602 25.4531C85.5391 25.2774 85.3086 25.2266 85.1289 25.3477C84.9531 25.4649 84.9024 25.6992 85.0234 25.875C85.1524 26.082 85.2969 26.2969 85.418 26.5234C85.5352 26.6992 85.7617 26.7695 85.9375 26.6484Z" fill="#FF715B"/>
<path d="M48.4024 92.1484C48.4063 92.3633 48.5742 92.543 48.7891 92.5352C49.0508 92.5273 49.3008 92.5391 49.5625 92.5312C49.7031 92.5352 49.8399 92.4414 49.8984 92.3281C49.9258 92.2734 49.9375 92.2109 49.9453 92.1445C49.9375 91.9297 49.7617 91.7695 49.5586 91.7578C49.2969 91.7656 49.0352 91.7734 48.7852 91.7617C48.5703 91.7695 48.3945 91.9336 48.4024 92.1484Z" fill="#FF715B"/>
<path d="M90.7617 39.8203C90.8242 40.0625 90.8594 40.3164 90.9258 40.5586C90.9609 40.7617 91.1719 40.8946 91.3789 40.8594C91.5078 40.8321 91.5937 40.7578 91.6406 40.668C91.6797 40.5938 91.6992 40.5078 91.6719 40.4258C91.6172 40.1641 91.5703 39.9297 91.5195 39.668C91.4844 39.4649 91.2695 39.3321 91.0664 39.3672C90.8516 39.4219 90.7266 39.6172 90.7617 39.8203Z" fill="#FF715B"/>
<path d="M91.6836 51.1172C91.6719 51.3672 91.6601 51.6211 91.6484 51.8711C91.6367 52.0742 91.793 52.2735 92 52.2852C92.1562 52.293 92.2969 52.2031 92.3633 52.0742C92.3828 52.0352 92.4101 51.9805 92.4101 51.9336C92.4219 51.6836 92.4453 51.4102 92.457 51.1602C92.4648 50.9571 92.3008 50.7774 92.0937 50.7656C91.8711 50.7461 91.6953 50.9141 91.6836 51.1172Z" fill="#FF715B"/>
<path d="M86.9023 29.1523C87.0234 29.3789 87.1406 29.6016 87.2422 29.8164C87.3359 30.0039 87.5742 30.082 87.7617 29.9883C87.8281 29.9531 87.9023 29.8984 87.9414 29.8242C88 29.7109 87.9883 29.5898 87.9531 29.4766C87.8359 29.2539 87.7266 29.0117 87.6055 28.7852C87.4844 28.6094 87.2617 28.5391 87.0742 28.6328C86.8906 28.7227 86.8125 28.9648 86.9023 29.1523Z" fill="#FF715B"/>
<path d="M91.7227 47.3281C91.7305 47.586 91.7461 47.8281 91.7344 48.082C91.7422 48.2969 91.918 48.457 92.125 48.4649C92.2656 48.4688 92.4063 48.375 92.4609 48.2656C92.4883 48.207 92.5 48.1445 92.5078 48.0781C92.5039 47.8164 92.4961 47.5586 92.4766 47.3125C92.4727 47.1016 92.2969 46.9414 92.082 46.9492C91.875 46.9375 91.707 47.1328 91.7227 47.3281Z" fill="#FF715B"/>
<path d="M61.4766 7.14454C61.2734 7.08594 61.0586 7.18751 61 7.39063C60.9414 7.59766 61.0625 7.82032 61.2656 7.87891C61.5078 7.95313 61.75 8.03126 61.9922 8.10938C62.168 8.17579 62.3555 8.08204 62.4414 7.91407C62.4492 7.89844 62.457 7.87891 62.4687 7.85938C62.5273 7.65626 62.4258 7.44141 62.2187 7.38282C61.9805 7.30469 61.7383 7.23048 61.4766 7.14454Z" fill="#FF715B"/>
<path d="M91.4023 43.5625C91.4375 43.8125 91.4727 44.0664 91.4883 44.3086C91.5234 44.5117 91.6992 44.6719 91.9063 44.6367C92.0352 44.6094 92.1367 44.5469 92.1953 44.4336C92.2227 44.3789 92.2422 44.293 92.2344 44.2187C92.1992 43.9687 92.1719 43.6992 92.1367 43.4453C92.1016 43.2422 91.9258 43.082 91.7031 43.1094C91.5156 43.1523 91.375 43.3359 91.4023 43.5625Z" fill="#FF715B"/>
<path d="M64.832 9.13674C65.0625 9.23439 65.2969 9.32814 65.5273 9.42189C65.7227 9.50002 65.9297 9.41799 66.0156 9.25002L66.0234 9.23049C66.1016 9.03517 66.0078 8.80471 65.8125 8.72658C65.582 8.63283 65.332 8.52736 65.0977 8.43361C64.9023 8.35549 64.6719 8.44533 64.5937 8.64064C64.5352 8.84767 64.6367 9.06252 64.832 9.13674Z" fill="#FF715B"/>
<path d="M81.9883 76.1446C81.8594 76.3125 81.875 76.5547 82.043 76.6836C82.207 76.8164 82.4492 76.8008 82.582 76.6328C82.75 76.4375 82.9024 76.2344 83.0703 76.043C83.082 76.0235 83.0899 76.0039 83.1094 75.9688C83.1953 75.8008 83.1484 75.6133 83 75.4922C82.8359 75.3594 82.5938 75.375 82.4609 75.543C82.3086 75.7461 82.1406 75.9414 81.9883 76.1446Z" fill="#FF715B"/>
<path d="M70.5 85.918C70.3203 86.0391 70.2539 86.2617 70.3711 86.4414C70.4922 86.6172 70.7148 86.6836 70.8945 86.5664C71.1172 86.4453 71.332 86.3008 71.5586 86.1797C71.625 86.1445 71.6719 86.0977 71.707 86.0235C71.7656 85.9102 71.7656 85.7735 71.6914 85.6406C71.5625 85.4805 71.332 85.4336 71.1445 85.5235C70.9375 85.6524 70.7031 85.7891 70.5 85.918Z" fill="#FF715B"/>
<path d="M63.4062 89.6406C63.4727 89.8359 63.7031 89.9336 63.8984 89.8672C64.1328 89.7774 64.3828 89.6953 64.6172 89.6055C64.7109 89.5586 64.7852 89.5039 64.8242 89.4297C64.8711 89.3359 64.8828 89.2266 64.8477 89.1133C64.7656 88.9063 64.5508 88.8203 64.3555 88.8867C64.1016 88.9688 63.8672 89.0586 63.6367 89.1484C63.4375 89.2109 63.3437 89.4453 63.4062 89.6406Z" fill="#FF715B"/>
<path d="M67.1406 87.6875C66.9531 87.7813 66.8594 88.0117 66.9492 88.1992C67.0391 88.3867 67.2734 88.4805 67.4609 88.3906C67.7031 88.2813 67.9258 88.1602 68.1523 88.043C68.2188 88.0039 68.293 87.9492 68.332 87.875C68.3867 87.7656 68.3789 87.6445 68.3438 87.5313C68.2344 87.3359 68.0078 87.2656 67.8242 87.3594C67.5977 87.4766 67.3633 87.5703 67.1406 87.6875Z" fill="#FF715B"/>
<path d="M73.6836 83.8516C73.5039 83.9688 73.4727 84.2109 73.5938 84.3906C73.7148 84.5664 73.957 84.5977 74.1328 84.4805C74.3477 84.332 74.5469 84.1758 74.7617 84.0273C74.8086 83.9805 74.8477 83.9531 74.875 83.8984C74.9414 83.7695 74.9219 83.6211 74.8398 83.5078C74.7109 83.3477 74.4805 83.2969 74.3008 83.418C74.1055 83.5742 73.8867 83.7227 73.6836 83.8516Z" fill="#FF715B"/>
<path d="M75.9492 15.1641C75.957 15.1445 75.9688 15.1289 75.9844 15.0899C76.0703 14.9219 76.0273 14.7383 75.8789 14.6133C75.6758 14.4649 75.4805 14.293 75.2773 14.1445C75.0742 14.0391 74.8477 14.0664 74.7188 14.2305C74.5859 14.3985 74.6211 14.6485 74.7969 14.7617C75 14.9141 75.2031 15.0664 75.3984 15.2344C75.5664 15.3672 75.8164 15.332 75.9492 15.1641Z" fill="#FF715B"/>
<path d="M52.2109 92.0156C52.2187 92.2305 52.4219 92.3789 52.6172 92.3633C52.8711 92.3281 53.1289 92.3203 53.3828 92.2852C53.5117 92.2578 53.6172 92.1953 53.6719 92.082C53.6992 92.0273 53.7187 91.9414 53.7109 91.8672C53.6875 91.6445 53.5 91.5039 53.2969 91.5391C53.0703 91.5664 52.8281 91.582 52.5586 91.6055C52.3437 91.6133 52.1953 91.8203 52.2109 92.0156Z" fill="#FF715B"/>
<path d="M25.2031 12.2852C24.9883 12.4336 24.7813 12.5625 24.5664 12.707C24.3906 12.8281 24.3399 13.0625 24.4609 13.2383C24.5781 13.418 24.8125 13.4649 24.9922 13.3438C25.207 13.1992 25.4102 13.0703 25.6289 12.9219C25.6914 12.8867 25.7227 12.832 25.75 12.7734C25.8047 12.6641 25.8164 12.5039 25.7344 12.3945C25.6133 12.2149 25.3828 12.168 25.2031 12.2852Z" fill="#FF715B"/>
<path d="M55.9961 91.5625C56.0313 91.7656 56.2344 91.918 56.4414 91.8828C56.6914 91.8477 56.9531 91.793 57.1953 91.7305C57.3281 91.7031 57.4102 91.6289 57.457 91.5352C57.4961 91.461 57.5156 91.3789 57.4883 91.2969C57.4531 91.0899 57.2383 90.957 57.0352 90.9922C56.8281 91.0274 56.5781 91.0625 56.3164 91.1172C56.1094 91.1524 55.9609 91.3555 55.9961 91.5625Z" fill="#FF715B"/>
<path d="M59.7461 90.7656C59.8008 90.9805 60.0039 91.082 60.2188 91.0313C60.4609 90.9649 60.7148 90.8828 60.957 90.8203C61.0703 90.7852 61.1523 90.7109 61.1914 90.6367C61.2383 90.543 61.2383 90.4531 61.2227 90.3477C61.168 90.1328 60.9648 90.0313 60.75 90.0859C60.5078 90.1484 60.2539 90.2305 60.0117 90.293C59.7969 90.3477 59.6914 90.5508 59.7461 90.7656Z" fill="#FF715B"/>
<path d="M76.6641 81.5391C76.5039 81.668 76.4922 81.918 76.6211 82.0781C76.75 82.2383 77.0039 82.25 77.1602 82.1211C77.3594 81.9648 77.5469 81.7773 77.7422 81.6211C77.7812 81.5938 77.8008 81.5586 77.8281 81.5C77.8945 81.3711 77.8867 81.2031 77.7656 81.0742C77.6562 80.9219 77.4141 80.8945 77.2461 81.0391C77.0664 81.207 76.8594 81.3828 76.6641 81.5391Z" fill="#FF715B"/>
<path d="M39.543 7.09768C39.6562 7.06252 39.7578 6.99612 39.8086 6.90627C39.8437 6.83205 39.8633 6.74612 39.8477 6.64455C39.8125 6.43752 39.5977 6.30862 39.3828 6.3594C39.1211 6.41408 38.8789 6.47658 38.6367 6.54299C38.4219 6.59377 38.3008 6.78908 38.3516 7.00393C38.4062 7.21877 38.6016 7.33987 38.8164 7.28908C39.0508 7.19533 39.2812 7.15237 39.543 7.09768Z" fill="#FF715B"/>
<path d="M89.7969 36.1719C89.8594 36.4141 89.9531 36.6485 90.0156 36.8906C90.0781 37.086 90.2734 37.211 90.4883 37.1563C90.5976 37.1172 90.6758 37.0625 90.7226 36.9727C90.7695 36.8789 90.7695 36.7852 90.7539 36.6836C90.6875 36.4414 90.6055 36.1875 90.5273 35.9336C90.4609 35.7383 90.2383 35.625 90.043 35.6875C89.8476 35.7539 89.7344 35.9766 89.7969 36.1719Z" fill="#FF715B"/>
<path d="M72.7305 12.3985C72.5156 12.2656 72.2852 12.125 72.082 11.9727C71.8867 11.8516 71.6641 11.9258 71.5508 12.1016C71.4375 12.2774 71.5 12.5196 71.6758 12.6328C71.8906 12.7656 72.1016 12.8946 72.3164 13.0274C72.4922 13.1406 72.7266 13.0977 72.8359 12.9219C72.8476 12.9024 72.8477 12.9024 72.8555 12.8828C72.9414 12.7188 72.8867 12.5039 72.7305 12.3985Z" fill="#FF715B"/>
<path d="M32.5039 9.20704C32.5508 9.11719 32.5625 9.00391 32.5078 8.88282C32.4258 8.67579 32.2109 8.58985 32.0039 8.67188C31.7734 8.76563 31.5273 8.875 31.2851 8.98438C31.0976 9.07422 31.0117 9.28907 31.0937 9.4961C31.1758 9.69922 31.4023 9.76563 31.6055 9.6836C31.8672 9.58594 32.1016 9.49219 32.3164 9.39454C32.3984 9.36719 32.4648 9.28125 32.5039 9.20704Z" fill="#FF715B"/>
<path d="M82.9102 22.2266C82.75 22.3555 82.7227 22.5977 82.8516 22.7578C83.0078 22.9531 83.1563 23.168 83.3125 23.3672C83.4297 23.543 83.6719 23.5742 83.8516 23.4531C83.8984 23.4102 83.9336 23.3828 83.9648 23.3242C84.0313 23.1953 84.0117 23.0469 83.9297 22.9336C83.7813 22.7188 83.625 22.5235 83.4688 22.3242C83.3125 22.1289 83.0703 22.0977 82.9102 22.2266Z" fill="#FF715B"/>
<path d="M28.8945 11.0117C28.9609 10.9766 29.0156 10.9102 29.0547 10.836C29.1094 10.7266 29.1016 10.6055 29.0469 10.4844C28.957 10.2969 28.7148 10.2188 28.5273 10.3125C28.3008 10.4297 28.0781 10.5508 27.8438 10.6875C27.6563 10.7774 27.582 11.0196 27.6914 11.2188C27.8086 11.3946 28.0508 11.4727 28.2188 11.3711C28.4453 11.25 28.668 11.1328 28.8945 11.0117Z" fill="#FF715B"/>
<path d="M79.4531 78.9649C79.3008 79.1211 79.3008 79.3516 79.457 79.5039C79.6133 79.6524 79.8477 79.6563 79.9961 79.5C80.1836 79.3125 80.3555 79.1211 80.5313 78.9531C80.5703 78.9258 80.5781 78.9063 80.5977 78.8711C80.6719 78.7227 80.6484 78.5469 80.5273 78.4141C80.3789 78.2461 80.1172 78.2539 79.9883 78.418C79.8164 78.6133 79.6406 78.7774 79.4531 78.9649Z" fill="#FF715B"/>
<path d="M84.2695 73.0977C84.1563 73.2774 84.1992 73.5078 84.3672 73.6407C84.543 73.7539 84.7773 73.711 84.9102 73.543C85.0586 73.3399 85.1992 73.1055 85.332 72.8946C85.3438 72.875 85.3438 72.875 85.3516 72.8555C85.4375 72.6914 85.3828 72.4766 85.2266 72.3711C85.0313 72.25 84.7969 72.293 84.6836 72.4688C84.5508 72.6836 84.4023 72.8867 84.2695 73.0977Z" fill="#FF715B"/>
<path d="M86.2617 69.8828C86.168 70.0703 86.2305 70.3125 86.4141 70.4063C86.6016 70.5039 86.8438 70.4375 86.9375 70.2539C87.0508 70.0313 87.1953 69.8008 87.3086 69.5781C87.4023 69.3906 87.3281 69.168 87.1445 69.0742C86.9492 68.9492 86.7266 69.0234 86.6211 69.2266C86.5078 69.4492 86.375 69.6602 86.2617 69.8828Z" fill="#FF715B"/>
<path d="M86.3477 36.7461C89.4766 46.3672 88.9297 57.1484 83.9883 66.8281L84.0078 66.8398C79.043 76.5117 70.6328 83.2773 61.0312 86.3711C51.4297 89.5117 40.6328 88.9531 30.9492 84.0117C21.2695 79.0664 14.5039 70.6562 11.4102 61.0547C8.27734 51.4375 8.82422 40.6562 13.7695 30.9727L12.3398 30.2461C7.19531 40.3164 6.6289 51.5547 9.8789 61.5352L9.84765 61.5469C13.1172 71.5391 20.1484 80.2969 30.2227 85.4375C40.293 90.582 51.5273 91.1523 61.5117 87.9023L61.5234 87.9297C71.5234 84.6875 80.2812 77.6562 85.4336 67.5664L85.4141 67.5586C90.5586 57.4883 91.1289 46.25 87.8867 36.25L86.3477 36.7461Z" fill="#FF715B"/>
<path d="M32.0781 16.4961C32.2734 16.8985 32.7617 17.082 33.1758 16.8711C34.6992 16.1289 37.9023 14.9805 37.9023 14.9805C39.3242 14.5391 40.7617 14.1485 42.207 13.8828C42.4687 13.8281 42.6758 13.6524 42.7773 13.4492C42.8555 13.3008 42.8828 13.1055 42.8555 12.9297C42.7773 12.4883 42.3437 12.1992 41.9023 12.2774C40.375 12.5703 37.3945 13.461 37.3945 13.461C35.6953 13.9961 34.0508 14.6524 32.4531 15.4024C32.0508 15.5938 31.8672 16.086 32.0781 16.4961Z" fill="#FF715B"/>
<path d="M84.4258 38.082C84.3633 37.8867 84.2891 37.6602 84.2266 37.4648L82.6836 37.9648C82.75 38.1602 82.8125 38.3555 82.875 38.5547C83.0117 38.9727 83.4492 39.2188 83.8867 39.0938C84.1094 39.0195 84.2812 38.8711 84.375 38.6875C84.4688 38.5 84.4883 38.2773 84.4258 38.082Z" fill="#FF715B"/>
<path d="M79.1602 28.75C78.7734 29 78.6602 29.5 78.9063 29.8867C80.4961 32.4063 81.75 35.125 82.668 37.9571L84.207 37.4571C83.2734 34.4766 81.957 31.6524 80.293 29.0039C80.043 28.6211 79.543 28.5039 79.1602 28.75Z" fill="#FF715B"/>
<path d="M62.0078 15.0352C62.0273 15 62.0351 14.9805 62.0547 14.9453C62.1992 14.5274 61.9961 14.0508 61.5586 13.8985C58.4297 12.7422 55.1484 12.0274 51.8281 11.7578C51.3789 11.7149 50.9766 12.0469 50.9531 12.5039C50.9141 12.9492 51.2461 13.3516 51.7031 13.375C54.8828 13.6445 58.0156 14.332 61.0078 15.4375C61.3984 15.5899 61.8164 15.4063 62.0078 15.0352Z" fill="#FF715B"/>
<path d="M81.3516 67.0508L81.3594 67.0313C81.5586 66.6406 81.4023 66.1641 81.0234 65.9453C80.625 65.7188 80.1289 65.8633 79.9023 66.2617C78.3438 69.043 76.4414 71.625 74.2148 73.8789C73.9023 74.2149 73.8984 74.7266 74.2305 75.0352C74.5664 75.3477 75.0781 75.3516 75.3867 75.0156C77.7148 72.6524 79.7227 69.961 81.3516 67.0508Z" fill="#FF715B"/>
<path d="M83.9766 58.3828C84.3477 58.4766 84.7188 58.293 84.8906 57.961C84.918 57.9063 84.9492 57.8477 84.957 57.7852C85.75 54.5391 86.1133 51.2188 86.0117 47.8946C86.0039 47.4453 85.625 47.0899 85.1797 47.0938C84.75 47.1094 84.3945 47.4883 84.3984 47.9336C84.4844 51.1133 84.1406 54.3047 83.3789 57.3985C83.2734 57.836 83.5391 58.2774 83.9766 58.3828Z" fill="#FF715B"/>
<path d="M60.3711 84.3242C62.8437 83.5078 65.2383 82.4375 67.5039 81.1172C67.6445 81.0235 67.7461 80.9141 67.8125 80.7852C67.9375 80.543 67.9375 80.2617 67.793 80C67.5703 79.6094 67.0703 79.4922 66.6758 79.711C64.5156 80.9688 62.2227 81.9766 59.8516 82.7735C59.1875 82.9727 58.5273 83.1719 57.8906 83.3633C57.4609 83.4727 57.207 83.9258 57.3125 84.3555C57.4219 84.7852 57.875 85.0391 58.3047 84.9297C59.0078 84.75 59.6797 84.5352 60.3711 84.3242Z" fill="#FF715B"/>
<path d="M17.8789 29.5664C18.25 29.8008 18.7422 29.7031 19.0078 29.3242C20.7617 26.6641 22.8672 24.2344 25.25 22.1289C25.3359 22.0586 25.4023 21.9727 25.4414 21.8984C25.5898 21.6016 25.5586 21.2578 25.3164 20.9961C25.0234 20.6563 24.5 20.625 24.1641 20.918C21.6562 23.125 19.457 25.6484 17.6367 28.4375C17.3984 28.8086 17.4883 29.3203 17.8789 29.5664Z" fill="#FF715B"/>
<path d="M64.1797 18.9766C55.9102 14.7539 46.7188 14.293 38.5469 16.9258C30.3672 19.5742 23.1836 25.3555 18.9687 33.6094C14.7578 41.8594 14.2969 51.0508 16.9453 59.2305C19.5977 67.4102 25.3594 74.5859 33.6133 78.8008C41.8633 83.0156 51.0352 83.4648 59.207 80.832C67.3867 78.1797 74.5781 72.4297 78.793 64.1758L77.2734 63.4023C73.2773 71.2266 66.4414 76.6914 58.6797 79.207C50.9102 81.7383 42.207 81.293 34.3594 77.2891C26.5312 73.293 21.0586 66.4727 18.543 58.7148C16.0469 50.9609 16.4844 42.2305 20.4805 34.4023C24.4766 26.5742 31.3047 21.082 39.0664 18.5703C46.8281 16.0547 55.5586 16.4922 63.4219 20.5078C71.25 24.5039 76.6875 31.3008 79.2188 39.0703L80.8438 38.5469C78.1953 30.3633 72.4336 23.1914 64.1797 18.9766Z" fill="#FF715B"/>
<path d="M48.5508 20.2305C48.6172 20.1016 48.6484 19.9531 48.6562 19.7969C48.6445 19.3203 48.2383 18.9258 47.7344 18.9492C45.3008 19.0391 42.8945 19.4492 40.5625 20.1289C40.0937 20.2617 39.8203 20.7539 39.957 21.2227C40.0898 21.6875 40.5664 21.9531 41.0312 21.8164C43.2266 21.1836 45.5 20.8008 47.793 20.711C48.1289 20.6953 48.4102 20.5117 48.5508 20.2305Z" fill="#FF715B"/>
<path d="M61.0586 22.5274C61.0703 22.5078 61.0781 22.4883 61.0859 22.4688C61.2695 22.0234 61.0664 21.5 60.6211 21.3203C58.3945 20.3711 56.043 19.707 53.625 19.3164C53.1523 19.2383 52.6836 19.5586 52.6133 20.0625C52.5352 20.5352 52.8555 21.0039 53.3594 21.0742C55.6367 21.418 57.8516 22.0352 59.9375 22.9375C60.3633 23.1055 60.8516 22.9336 61.0586 22.5274Z" fill="#FF715B"/>
<path d="M21.9727 59.8321C21.5234 60.0235 21.3242 60.5547 21.5156 61C22.5117 63.2188 23.75 65.3242 25.2539 67.2344C25.5547 67.6485 26.1133 67.6992 26.5 67.4063C26.6133 67.3203 26.6875 67.2188 26.7422 67.1094C26.8945 66.8125 26.8711 66.4492 26.6602 66.1758C25.25 64.3594 24.0742 62.4024 23.1406 60.2891C22.9492 59.8399 22.4219 59.6406 21.9727 59.8321Z" fill="#FF715B"/>
<path d="M44.2305 78.4688C46.418 78.8164 48.6523 78.9258 50.8242 78.7969C51.1406 78.7696 51.4219 78.586 51.5625 78.3086C51.6289 78.1797 51.668 78.0117 51.6602 77.8438C51.625 77.3594 51.2109 76.9844 50.7266 77.0157C48.6484 77.1485 46.543 77.0547 44.4883 76.7305C44.2734 76.6914 44.0781 76.6602 43.8672 76.6211C43.3906 76.543 42.9336 76.8477 42.8437 77.3399C42.7656 77.8164 43.0703 78.2735 43.5625 78.3633C43.7773 78.4024 43.9883 78.4414 44.2305 78.4688Z" fill="#FF715B"/>
<path d="M24.707 32.7695C24.2969 32.5156 23.7461 32.6328 23.4844 33.0586C23.0391 33.7891 22.6133 34.5313 22.2266 35.293C21.5039 36.7031 20.9063 38.1484 20.418 39.6563C20.2734 40.1211 20.5313 40.625 20.9961 40.7695C21.4141 40.9102 21.8633 40.7188 22.0625 40.332C22.082 40.293 22.1094 40.2383 22.1094 40.1914C22.5664 38.7891 23.1289 37.4141 23.8008 36.0977C24.1719 35.375 24.5586 34.6602 24.9922 33.9922C25.2578 33.5664 25.1133 33.0274 24.707 32.7695Z" fill="#FF715B"/>
<path d="M34.7422 24.5195C34.8984 24.4375 35.0117 24.3086 35.0898 24.1602C35.2187 23.9024 35.2227 23.5742 35.0586 23.3047C34.8086 22.8711 34.2695 22.7383 33.8398 22.9844C31.7461 24.207 29.793 25.6875 28.0469 27.3711C27.6914 27.7031 27.6875 28.2617 28.0195 28.6172C28.3711 28.9844 28.9453 28.9961 29.2852 28.6563C30.918 27.0586 32.7734 25.668 34.7422 24.5195Z" fill="#FF715B"/>
<path d="M19.0469 46.7852C18.875 49.2266 18.9844 51.668 19.4023 54.0547C19.4844 54.5391 19.957 54.8516 20.4219 54.7617C20.7031 54.7188 20.9375 54.5313 21.0586 54.293C21.1445 54.125 21.1719 53.9297 21.1367 53.7227C20.7461 51.4688 20.6289 49.1836 20.7969 46.8867C20.8359 46.3906 20.4687 45.9688 19.9766 45.9297C19.4805 45.8867 19.0781 46.3125 19.0469 46.7852Z" fill="#FF715B"/>
<path d="M31.4805 71.0235C31.0898 70.7305 30.5391 70.8008 30.2305 71.1797C29.918 71.5586 29.9883 72.1094 30.3672 72.4219C31.8867 73.6172 33.5234 74.6641 35.25 75.543L35.2422 75.5625C35.2891 75.5625 35.2891 75.5625 35.2891 75.5625C35.7148 75.7813 36.168 75.9883 36.6055 76.1875C37.0391 76.3867 37.5352 76.1953 37.7461 75.7891C37.7539 75.7696 37.7539 75.7696 37.7617 75.75C37.9609 75.3164 37.7617 74.793 37.3086 74.5821C36.8906 74.3946 36.4727 74.2031 36.0625 73.9961L36.0742 73.9766C34.4609 73.1524 32.9141 72.1524 31.4805 71.0235Z" fill="#FF715B"/>
</svg>
