<svg xmlns="http://www.w3.org/2000/svg" viewBox="0 0 198.33 69.69"><defs><style>.cls-1{fill:#fff;}</style></defs><g id="Layer_2" data-name="Layer 2"><g id="Layer_1-2" data-name="Layer 1"><path class="cls-1" d="M154.73,9.75a54.17,54.17,0,0,0-9-5.48A26.63,26.63,0,0,0,126.36,3.1l-1.42.45a27.52,27.52,0,0,1-9.28,1.23c-11.58-.42-13.84,6-22.09,14.24-8,5.55-7-19-22.6-19C51.28,0,49.71,12,43.26,14.58,28.68,20.41,26.58,29.89,22.85,29.89c-8.53,0-18.33,2.26-22,10.94A8.26,8.26,0,0,0,.5,47.25c1.28,2.93,4.76,4.16,7.93,4.58,9.83,1.31,18.75,5.71,28.46,7.75C50.2,62.39,63.55,61.71,77,62.77s26.7,3,40,4.37c18,1.9,38.64,5,56.23-.81,5.78-1.92,13.5-4.2,17.72-8.59,2.73-2.84,8-11.13,7.29-13.12-2.16-5.76-4.78-12.07-10.78-14.65-4.19-1.8-8.86-1.91-13.27-2.84-3.8-.81-7.14-6.5-9.8-9.06A100.23,100.23,0,0,0,154.73,9.75Z"/></g></g></svg>