<svg xmlns="http://www.w3.org/2000/svg" viewBox="0 0 292.08 57.83"><defs><style>.cls-1{fill:#fff;}</style></defs><g id="Layer_2" data-name="Layer 2"><g id="Layer_1-2" data-name="Layer 1"><path class="cls-1" d="M148.37,21c6.45-3.66,1.78-12,13.89-18.83,5.82-3.29,24.35-2.77,29.82,1.71,11,9,10.08,15,21,17.47s10,12.53,22.64,8.83c12.88-3.77,32.48,3.87,39.67,17.71,2,4.29,9.74,10,16.72,10H7.08c-12.13,0-11-15,22-15,4.61,0,26,7,31.22-5.6,3.29-7.92,18.58-13.73,24.78-10.4C96,20,99.83,27.08,109.72,20.22c6.16-4.29,13.2-7.06,20.8-6A35.64,35.64,0,0,1,143,18.73C144.81,19.78,146.76,21,148.37,21Z"/></g></g></svg>