<svg xmlns="http://www.w3.org/2000/svg" viewBox="0 0 200.51 91.05"><defs><style>.cls-1{fill:#fff;}</style></defs><g id="Layer_2" data-name="Layer 2"><g id="Layer_1-2" data-name="Layer 1"><path class="cls-1" d="M31.23,31.3c14.4-1.15,12.4-6.15,30.4-7.15.84,0,12.51-2.85,13.45-4.23,18.77-27.4,58-26.39,74.73,2.13,2.43,4.13,4.91,6.14,9.85,6.16,9,0,16.2,4.37,21.7,11.38,6.5,8.28,7,20,16.77,26.8,3.87,2.69,2.55,8.82-.61,13-3.44,4.56-8.2,7-13.73,5.13-4.37-1.48-7.42-.32-11.07,1.85-11.38,6.78-22.92,6-33.75-1.21-3.37-2.26-5.68-2.49-9.34-.87-11.7,5.18-23.69,5.56-35.42,0-3.63-1.71-6.3-1.07-9.63.84C71.29,92.78,56.65,91.79,46.08,81,37.75,72.52,29,75.33,20.59,78.13c-7,2.34-12.8,3-17.38-3s-4.33-12.6,1.7-18C7.59,54.71,8,51.56,8.82,48.46,11.86,37.33,19.89,32.6,31.23,31.3Z"/></g></g></svg>