<svg xmlns="http://www.w3.org/2000/svg" viewBox="0 0 667.42 422.55"><defs><style>.cls-1{fill:#9f3e58;}.cls-2{fill:#752c54;}.cls-3{fill:#4e1545;}.cls-4{fill:#f2ae72;}.cls-5{fill:#de485f;}</style></defs><g id="Layer_2" data-name="Layer 2"><g id="Layer_2-2" data-name="Layer 2"><path class="cls-1" d="M148.08,347Q122.6,257,97.14,167C86.26,128.31,73.86,89.93,65.54,50.7,59.83,23.8,82.58.83,110.31.47,131,.2,151.62.15,172.28,0l296,.35c2.7,0,5.41.17,8.12.26.76.78,1.37,1.86,2.29,2.3,26.89,12.74,35.93,31.72,27.85,60.39-9.15,32.49-18.76,64.86-28.43,97.21-5.14,17.2-10.83,34.25-16.27,51.36-5.51-17.8-17.25-27-36.12-24.51-14.58,1.95-22.81,11.09-24.44,25.84-1.37,12.39,2.79,22.87,13.24,29.37,13.74,8.57,27.27,5.44,39.82-3.7-9.53,33.51-19.29,66.95-28.4,100.57-2,7.24-5.36,8.82-12.33,8.8C328,348,242.42,348,156.81,348A83.41,83.41,0,0,1,148.08,347Zm84.24-117.43c.28-1.78.58-3.54.82-5.32,2-15.07-1.73-29-16.1-34.8s-29.78-4.36-38.92,10.93c-8.74,14.63-7.2,29.5,6.42,40.22,17.5,13.78,33,5.29,47.11-7.33-1.93,16.43,7.06,28.73,16.16,40.64,2.37,3.1,4.12,9.12,10.47,7.46,9,15.11,24.34,19.4,39.91,23.18C325.8,311.3,365,300.27,377,282.53c14.92-11.07,24.94-25.7,25.11-44.28.11-12.51-8.85-19.66-22.09-19.67-33.16,0-66.33-.2-99.48,0C263.68,218.63,245.76,214.53,232.32,229.61Zm-3.35-57c16-.3,24.4-8.61,24.54-22.27.13-13.5-7.89-22.75-22.41-23.07s-23.3,9-24.18,21.75C205.93,163.34,215.87,171.21,229,172.57ZM430.23,150c-1.05-14-8.28-22.61-22.59-22.58-13.78,0-22.69,7.08-22.64,22s8.39,22.41,22.77,22.64S428.86,163.91,430.23,150Z"/><path class="cls-2" d="M461.87,211.87c5.44-17.11,11.13-34.16,16.27-51.36,9.67-32.35,19.28-64.72,28.43-97.21,8.08-28.67-1-47.65-27.85-60.39-.92-.44-1.53-1.52-2.29-2.3,19.08,0,38.19-.77,57.22.11,29.5,1.37,48.7,28.75,41.42,57.85-.87,3.49-1.82,7-3.07,11.71,11.35,0,22,1.1,32.42-.19,43.82-5.45,77.35,29.43,56.81,79.6-15.58,38.07-27.87,77.49-41.72,116.27-8.69,24.35-25.78,36.26-51.46,36.22-18.63,0-37.27.35-55.88-.18-6.58-.19-9.12,2.15-10.63,8.13-3,12.05-6.74,23.94-10.53,37.16,21.83,0,42.83,0,63.82,0,21.36,0,42.71.07,64.06,0,8.65,0,14.92,3.92,18.42,11.63,3.63,8,2.48,15.7-3.79,22-12.78,12.85-25.78,25.49-38.69,38.21-3.08,1-6.15,2.87-9.23,2.87q-265.16.35-530.32.49c-5.6,0-9.79-1.31-13.78-5.48-11.14-11.65-22.67-22.93-34.17-34.24C.48,376.09-2,368.32,1.78,359.31c3.71-8.77,10.89-12.16,20.21-12.15q63,.06,126.09-.12a83.41,83.41,0,0,0,8.73.93c85.61.07,171.22,0,256.83.27,7,0,10.37-1.56,12.33-8.8,9.11-33.62,18.87-67.06,28.4-100.57C458.65,230.37,462.24,221.67,461.87,211.87Zm53.74,50.46c17.55,0,34.27-.27,51,.11,8.59.2,13.24-3.41,16-11.39q21.86-62.24,44.2-124.27c4-11.24-.78-16.48-11.68-16.91-10.66-.42-21.61,1.44-32-.38-19.58-3.43-27.91,5.4-30.12,23.35a51.46,51.46,0,0,1-1.93,7.76C539.41,180.84,527.65,221.08,515.61,262.33Z"/><path class="cls-3" d="M258.28,281.41c-6.35,1.66-8.1-4.36-10.47-7.46-9.1-11.91-18.09-24.21-16.15-40.64l.66-3.7c13.44-15.08,31.36-11,48.18-11.06,33.15-.17,66.32,0,99.48,0,13.24,0,22.2,7.16,22.09,19.67-.17,18.58-10.19,33.21-25.11,44.28C349.11,236.21,289.59,235.65,258.28,281.41Z"/><path class="cls-4" d="M258.28,281.41c31.31-45.76,90.83-45.2,118.68,1.12C365,300.27,325.8,311.3,298.19,304.59,282.62,300.81,267.3,296.52,258.28,281.41Z"/><path class="cls-5" d="M232.32,229.61l-.66,3.7c-14.16,12.62-29.62,21.11-47.12,7.33-13.62-10.72-15.16-25.59-6.42-40.22,9.14-15.29,24.67-16.7,38.92-10.93s18.14,19.73,16.1,34.8C232.9,226.07,232.6,227.83,232.32,229.61Z"/><path class="cls-5" d="M461.87,211.87c.37,9.8-3.22,18.5-7.5,27-12.55,9.14-26.08,12.27-39.82,3.7-10.45-6.5-14.61-17-13.24-29.37,1.63-14.75,9.86-23.89,24.44-25.84C444.62,184.84,456.36,194.07,461.87,211.87Z"/><path class="cls-3" d="M229,172.57c-13.1-1.36-23-9.23-22.05-23.59.88-12.79,9.8-22.06,24.18-21.75s22.54,9.57,22.41,23.07C253.37,164,245,172.27,229,172.57Z"/><path class="cls-3" d="M430.23,150c-1.37,13.87-8.12,22.33-22.46,22.1s-22.71-7.7-22.77-22.64,8.86-22,22.64-22C422,127.43,429.18,136.07,430.23,150Z"/></g></g></svg>