<svg xmlns="http://www.w3.org/2000/svg" viewBox="0 0 584.97 287.2"><defs><style>.cls-1{fill:#00a99d;}</style></defs><g id="Layer_2" data-name="Layer 2"><g id="Layer_2-2" data-name="Layer 2"><path class="cls-1" d="M282.92,287.2c-55.87-2.09-111.88.21-167.7-2.51-87.13,1-149.57-105.57-94.41-177.14C85.74,21.24,137.2,82.7,180.57,40.16c57.35-56,157.16-53.55,207,8.12,18.65,23.08,34.46,40.77,66,46.61a80.46,80.46,0,0,1,57.66,45.29c4.6,10,13.6,10.77,22.29,13.74,49.9,17,67.75,71.55,34.36,107-15.6,16.57-36.13,24.66-59.74,24.58C433.17,286.42,357.74,283.11,282.92,287.2Z"/></g></g></svg>