<svg xmlns="http://www.w3.org/2000/svg" viewBox="0 0 585.08 287.2"><defs><style>.cls-1{fill:#fafdfd;}</style></defs><g id="Layer_2" data-name="Layer 2"><g id="Layer_2-2" data-name="Layer 2"><path class="cls-1" d="M283,287.2q-9.13-.36-18.27-.72c-49.81-.47-99.69.37-149.44-1.79-44.18-1.92-80.16-22.87-101-61.69C-6.36,184.66-5,143.48,20.92,107.55c27.37-37.91,67-56.25,113.72-50.72,20.35,2.41,32.74-3.69,46-16.68,57.35-56,157.16-53.54,207,8.14,18.65,23.07,34.46,40.76,66,46.6a80.47,80.47,0,0,1,57.67,45.29c4.6,10,13.6,10.77,22.29,13.74,49.9,17,67.75,71.55,34.36,107-15.6,16.56-36.13,24.65-59.74,24.57-70.55-.24-141.09,0-211.64.22C292.11,285.71,287.57,286.68,283,287.2Z"/></g></g></svg>