<svg xmlns="http://www.w3.org/2000/svg" viewBox="0 0 157.4 76.82"><defs><style>.cls-1{fill:#fff;}</style></defs><g id="Layer_2" data-name="Layer 2"><g id="Layer_1-2" data-name="Layer 1"><path class="cls-1" d="M94.92,9.27c16-11,19.62-11.9,33.78-4.34,12.58,6.71,15.44,17.25,9.17,35.34,10.9,1.2,18.61,5.89,19.46,18.07.81,11.66-5.11,18-15.94,18.08q-63.9.73-127.81.16C5.93,76.52.56,71.35,0,63.18c-.55-8.62,5.29-11.61,12.67-12.65,2.2-.31,4.43-.42,6.62-.62,2.07-13.82,9.15-18.58,24.76-16.79,9.11-16.3,8.83-25.85,24.83-20.85,4.2,1.31,4.21-5.43,11-4C86.33,9.62,86.92,14.27,94.92,9.27Z"/></g></g></svg>